# xmcd
# 
# Track frame offsets:
#     150
#     10298
#     21147
#     32172
#     43154
#     55573
#     68258
#     81428
#     94956
#     105267
#     118195
#     131843
#     141999
#     151407
#     162926
#     173191
#     183990
#     195950
#     207119
#     219439
#     232168
# 
# Disc length: 3293
# 
# Revision: 0
# Processed by: cddbd v1.5.2PL0 Copyright (c) Steve Scherf et al.
# Submitted via: fre:ac v1.0.31
# 
DISCID=1e0cdb15
DTITLE=Jenny Brosnan - Memories of Mum and Patsy
DYEAR=2015
DGENRE=Country
TTITLE0=Seven Lonely Days
TTITLE1=Leaving On Your Mind
TTITLE2=Just Out Of Reach
TTITLE3=The Heart You Break
TTITLE4=He Called Me Baby Baby
TTITLE5=You Made Me Love You
TTITLE6=She's Got You
TTITLE7=You Belong To Me
TTITLE8=Heartaches
TTITLE9=Eyes Of A Child
TTITLE10=Tennessee Waltz
TTITLE11=Have You Ever Been Lonely
TTITLE12=Fooling Around
TTITLE13=Sweet Drams Of You
TTITLE14=Stranger In My Arms
TTITLE15=I've Loved And Lost Again
TTITLE16=Pick Me Up On Your Way Down
TTITLE17=Crazy Arms
TTITLE18=When I Get Through With You
TTITLE19=Crazy
TTITLE20=Amazing Grace
EXTD=
EXTT0=
EXTT1=
EXTT2=
EXTT3=
EXTT4=
EXTT5=
EXTT6=
EXTT7=
EXTT8=
EXTT9=
EXTT10=
EXTT11=
EXTT12=
EXTT13=
EXTT14=
EXTT15=
EXTT16=
EXTT17=
EXTT18=
EXTT19=
EXTT20=
PLAYORDER=
